# xmcd
#
# Track frame offsets:
#      183
#      25083
#      50283
#      76083
# 
# Disc length: 1179 seconds
#
# Revision: 2
# Processed by: cddbd v1.4PL0 Copyright (c) Steve Scherf et al.
#
# Submitted via: FreeRIP 1.21
#
DISCID=1f049904
DTITLE=L.A.800 - Squaredance in the house
DYEAR=1990
DGENRE=Dance
TTITLE0=Squaredance in the house (Club-Mix)
TTITLE1=Squaredance in the house (Western-Mix)
TTITLE2=Squaredance in the house (Instrumental)
TTITLE3=Squaredance in the house (Western Radio Version)
EXTD=keyword: blues
EXTT0=
EXTT1=
EXTT2=
EXTT3=
PLAYORDER=
